<svg width="38" height="36" viewBox="0 0 38 36" fill="none" xmlns="http://www.w3.org/2000/svg">
<path d="M37.2083 19.8132L35.1249 21.8965L30.8541 17.6257L32.9374 15.5423C33.1516 15.3324 33.4396 15.2148 33.7395 15.2148C34.0394 15.2148 34.3274 15.3324 34.5416 15.5423L37.2083 18.209C37.6458 18.6465 37.6458 19.3757 37.2083 19.8132ZM16.9999 31.459L29.6249 18.834L33.8958 23.1048L21.2916 35.7506H16.9999V31.459ZM16.9999 21.1673C7.79158 21.1673 0.333252 24.8965 0.333252 29.5007V33.6673H12.8333V29.7298L21.1666 21.3965C19.7916 21.2298 18.3958 21.1673 16.9999 21.1673ZM16.9999 0.333984C14.7898 0.333984 12.6702 1.21196 11.1074 2.77476C9.54456 4.33756 8.66658 6.45718 8.66658 8.66732C8.66658 10.8775 9.54456 12.9971 11.1074 14.5599C12.6702 16.1227 14.7898 17.0007 16.9999 17.0007C19.2101 17.0007 21.3297 16.1227 22.8925 14.5599C24.4553 12.9971 25.3333 10.8775 25.3333 8.66732C25.3333 6.45718 24.4553 4.33756 22.8925 2.77476C21.3297 1.21196 19.2101 0.333984 16.9999 0.333984Z" fill="white"/>
</svg>
