<svg width="68" height="68" viewBox="0 0 68 68" fill="none" xmlns="http://www.w3.org/2000/svg">
<path d="M57.5 10.3662C54.444 7.2793 50.804 4.83177 46.7922 3.16638C42.7804 1.501 38.4771 0.651082 34.1334 0.666214C15.9334 0.666214 1.10004 15.4995 1.10004 33.6995C1.10004 39.5329 2.63337 45.1995 5.50004 50.1995L0.833374 67.3329L18.3334 62.7329C23.1667 65.3662 28.6 66.7662 34.1334 66.7662C52.3334 66.7662 67.1667 51.9329 67.1667 33.7329C67.1667 24.8995 63.7334 16.5995 57.5 10.3662ZM34.1334 61.1662C29.2 61.1662 24.3667 59.8329 20.1334 57.3329L19.1334 56.7329L8.73337 59.4662L11.5 49.3329L10.8334 48.2995C8.09253 43.9228 6.63717 38.8637 6.63337 33.6995C6.63337 18.5662 18.9667 6.23288 34.1 6.23288C41.4334 6.23288 48.3334 9.09955 53.5 14.2995C56.0583 16.8461 58.0857 19.8751 59.4647 23.211C60.8437 26.5468 61.5468 30.1232 61.5334 33.7329C61.6 48.8662 49.2667 61.1662 34.1334 61.1662ZM49.2 40.6329C48.3667 40.2329 44.3 38.2329 43.5667 37.9329C42.8 37.6662 42.2667 37.5329 41.7 38.3329C41.1334 39.1662 39.5667 41.0329 39.1 41.5662C38.6334 42.1329 38.1334 42.1995 37.3 41.7662C36.4667 41.3662 33.8 40.4662 30.6667 37.6662C28.2 35.4662 26.5667 32.7662 26.0667 31.9329C25.6 31.0995 26 30.6662 26.4334 30.2329C26.8 29.8662 27.2667 29.2662 27.6667 28.7995C28.0667 28.3329 28.2334 27.9662 28.5 27.4329C28.7667 26.8662 28.6334 26.3995 28.4334 25.9995C28.2334 25.5995 26.5667 21.5329 25.9 19.8662C25.2334 18.2662 24.5334 18.4662 24.0334 18.4329H22.4334C21.8667 18.4329 21 18.6329 20.2334 19.4662C19.5 20.2995 17.3667 22.2995 17.3667 26.3662C17.3667 30.4329 20.3334 34.3662 20.7334 34.8995C21.1334 35.4662 26.5667 43.7995 34.8334 47.3662C36.8 48.2329 38.3334 48.7329 39.5334 49.0995C41.5 49.7329 43.3 49.6329 44.7334 49.4329C46.3334 49.1995 49.6334 47.4329 50.3 45.4995C51 43.5662 51 41.9329 50.7667 41.5662C50.5334 41.1995 50.0334 41.0329 49.2 40.6329Z" fill="white"/>
</svg>
