<svg width="80" height="80" viewBox="0 0 80 80" fill="none" xmlns="http://www.w3.org/2000/svg">
<path d="M65.4545 80C61.4545 80 58.0303 78.4333 55.1818 75.3C52.3333 72.1667 50.9091 68.4 50.9091 64V46C50.9091 43.2 51.7879 40.8333 53.5455 38.9C55.303 36.9667 57.4545 36 60 36C62.5455 36 64.697 36.9667 66.4545 38.9C68.2121 40.8333 69.0909 43.2 69.0909 46V64H61.8182V46C61.8182 45.4667 61.6364 45 61.2727 44.6C60.9091 44.2 60.4849 44 60 44C59.5152 44 59.0909 44.2 58.7273 44.6C58.3636 45 58.1818 45.4667 58.1818 46V64C58.1818 66.2 58.8945 68.084 60.32 69.652C61.7455 71.22 63.457 72.0027 65.4545 72C67.4545 72 69.1673 71.216 70.5927 69.648C72.0182 68.08 72.7297 66.1973 72.7273 64V48H80V64C80 68.4 78.5758 72.1667 75.7273 75.3C72.8788 78.4333 69.4545 80 65.4545 80ZM36.3636 36L65.4545 16V8L36.3636 28L7.27273 8V16L36.3636 36ZM0 64V0H72.7273V32H60C56.4849 32 53.4848 33.3667 51 36.1C48.5152 38.8333 47.2727 42.1333 47.2727 46V64H0Z" fill="white"/>
</svg>
