<svg width="42" height="42" viewBox="0 0 42 42" fill="none" xmlns="http://www.w3.org/2000/svg">
<path d="M10.5834 27.1248L23.2084 14.4998L27.5001 18.7915L14.8751 31.4165H10.5834V27.1248ZM21.0001 37.6665C25.4204 37.6665 29.6596 35.9106 32.7852 32.785C35.9108 29.6593 37.6667 25.4201 37.6667 20.9998C37.6667 16.5796 35.9108 12.3403 32.7852 9.21472C29.6596 6.08912 25.4204 4.33317 21.0001 4.33317C16.5798 4.33317 12.3406 6.08912 9.21497 9.21472C6.08936 12.3403 4.33341 16.5796 4.33341 20.9998C4.33341 25.4201 6.08936 29.6593 9.21497 32.785C12.3406 35.9106 16.5798 37.6665 21.0001 37.6665ZM30.7917 15.479L28.7084 17.5623L24.4376 13.2915L26.5209 11.2082C26.9584 10.7498 27.6876 10.7498 28.1251 11.2082L30.7917 13.8748C31.2501 14.3123 31.2501 15.0415 30.7917 15.479ZM21.0001 0.166504C23.736 0.166504 26.445 0.705374 28.9727 1.75235C31.5003 2.79932 33.7969 4.33389 35.7315 6.26845C37.666 8.203 39.2006 10.4996 40.2476 13.0273C41.2945 15.5549 41.8334 18.264 41.8334 20.9998C41.8334 26.5252 39.6385 31.8242 35.7315 35.7312C31.8245 39.6382 26.5254 41.8332 21.0001 41.8332C18.2642 41.8332 15.5551 41.2943 13.0275 40.2473C10.4999 39.2004 8.20324 37.6658 6.26869 35.7312C2.36168 31.8242 0.166748 26.5252 0.166748 20.9998C0.166748 15.4745 2.36168 10.1755 6.26869 6.26845C10.1757 2.36144 15.4747 0.166504 21.0001 0.166504Z" fill="#fff"/>
</svg>
