<svg width="50" height="50" viewBox="0 0 50 50" fill="none" xmlns="http://www.w3.org/2000/svg">
<path d="M37.5 4.16699L40.625 7.29199L43.75 4.16699V19.0212L39.5833 23.1878V10.2295H10.4167V39.7712H21.875V42.7087L18.75 45.8337L15.625 42.7087L12.5 45.8337L9.375 42.7087L6.25 45.8337V4.16699L9.375 7.29199L12.5 4.16699L15.625 7.29199L18.75 4.16699L21.875 7.29199L25 4.16699L28.125 7.29199L31.25 4.16699L34.375 7.29199L37.5 4.16699ZM27.0833 41.5837L39.8542 28.8128L44.1042 33.0628L31.3333 45.8337H27.0833V41.5837ZM41.3125 27.3545L43.3542 25.3128L43.3958 25.2712C43.5 25.1878 43.625 25.1045 43.75 25.0628C43.9386 24.9936 44.1431 24.9804 44.339 25.0247C44.5349 25.0691 44.7138 25.1691 44.8542 25.3128L47.6042 28.0628C48.0208 28.4795 48.0208 29.167 47.6042 29.5628L45.5625 31.6045L41.3125 27.3545ZM37.5 25.2712L35.6875 27.0837H12.5V22.917H37.5V25.2712ZM31.5208 31.2503L27.3542 35.417H12.5V31.2503H31.5208ZM37.5 18.7503V14.5837H12.5V18.7503H37.5Z" fill="white"/>
</svg>
