<svg width="44" height="44" viewBox="0 0 44 44" fill="none" xmlns="http://www.w3.org/2000/svg">
<path d="M23.9355 1.23552C22.053 0.472273 19.9472 0.472273 18.0647 1.23552L2.44383 7.56886C1.77098 7.8414 1.19482 8.30861 0.789139 8.91063C0.383461 9.51265 0.166744 10.2221 0.166748 10.948V31.0584C0.167159 31.784 0.384069 32.493 0.789721 33.0946C1.19537 33.6962 1.77131 34.1631 2.44383 34.4355L18.0647 40.7689C18.3563 40.8876 18.6563 40.9876 18.9563 41.0709C18.9772 40.9147 19.0084 40.7584 19.048 40.6001L20.0022 36.7876C20.3397 35.4376 21.0376 34.2043 22.023 33.2209L22.5647 32.6793V18.4293L38.7084 12.1939V18.9334C39.7769 18.8629 40.8471 19.0434 41.8334 19.4605V10.948C41.8334 10.2221 41.6167 9.51265 41.211 8.91063C40.8053 8.30861 40.2292 7.8414 39.5563 7.56886L23.9355 1.23552ZM19.2397 4.13136C20.3687 3.67386 21.6315 3.67386 22.7605 4.13136L36.4959 9.70011L30.9334 11.8459L15.2522 5.75011L19.2397 4.13136ZM11.0313 7.45844L26.6084 13.5168L21.0042 15.6814L5.56258 9.67719L11.0313 7.45844ZM3.29175 12.1459L19.4376 18.4251V37.948C19.371 37.9246 19.305 37.8996 19.2397 37.873L3.61675 31.5397C3.52059 31.5007 3.43828 31.4338 3.38037 31.3477C3.32247 31.2616 3.2916 31.1601 3.29175 31.0564V12.1459ZM35.7917 22.3959L23.4938 34.6939C22.7773 35.4107 22.269 36.3086 22.023 37.2918L21.0688 41.1064C20.9739 41.4859 20.979 41.8835 21.0835 42.2605C21.188 42.6375 21.3884 42.981 21.6651 43.2576C21.9418 43.5341 22.2855 43.7342 22.6626 43.8384C23.0396 43.9426 23.4373 43.9474 23.8167 43.8522L27.6292 42.9001C28.6134 42.6539 29.5121 42.1448 30.2292 41.4272L42.5251 29.1314C43.3954 28.2338 43.8779 27.0299 43.8683 25.7797C43.8588 24.5295 43.358 23.3332 42.4741 22.449C41.5902 21.5648 40.394 21.0637 39.1438 21.0537C37.8936 21.0438 36.6896 21.5259 35.7917 22.3959Z" fill="white"/>
</svg>
