<svg width="80" height="80" viewBox="0 0 80 80" fill="none" xmlns="http://www.w3.org/2000/svg">
<path d="M64 0H16V17.7778H64M68 40C66.9391 40 65.9217 39.5317 65.1716 38.6983C64.4214 37.8648 64 36.7343 64 35.5556C64 34.3768 64.4214 33.2464 65.1716 32.4129C65.9217 31.5794 66.9391 31.1111 68 31.1111C69.0609 31.1111 70.0783 31.5794 70.8284 32.4129C71.5786 33.2464 72 34.3768 72 35.5556C72 36.7343 71.5786 37.8648 70.8284 38.6983C70.0783 39.5317 69.0609 40 68 40ZM56 71.1111H24V48.8889H56M68 22.2222H12C8.8174 22.2222 5.76516 23.627 3.51472 26.1275C1.26428 28.6279 0 32.0193 0 35.5556V62.2222H16V80H64V62.2222H80V35.5556C80 32.0193 78.7357 28.6279 76.4853 26.1275C74.2348 23.627 71.1826 22.2222 68 22.2222Z" fill="white"/>
</svg>
