<svg width="46" height="40" viewBox="0 0 46 40" fill="none" xmlns="http://www.w3.org/2000/svg">
<path d="M22.6458 12.75L29.2499 19.3333V19C29.2499 17.3424 28.5914 15.7527 27.4193 14.5806C26.2472 13.4085 24.6575 12.75 22.9999 12.75H22.6458ZM13.6874 14.4167L16.9166 17.6458C16.8124 18.0833 16.7499 18.5208 16.7499 19C16.7499 20.6576 17.4084 22.2473 18.5805 23.4194C19.7526 24.5915 21.3423 25.25 22.9999 25.25C23.4583 25.25 23.9166 25.1875 24.3541 25.0833L27.5833 28.3125C26.1874 29 24.6458 29.4167 22.9999 29.4167C20.2372 29.4167 17.5877 28.3192 15.6342 26.3657C13.6807 24.4122 12.5833 21.7627 12.5833 19C12.5833 17.3542 12.9999 15.8125 13.6874 14.4167ZM2.16659 2.89583L6.91659 7.64583L7.85408 8.58333C4.41659 11.2917 1.70825 14.8333 0.083252 19C3.68742 28.1458 12.5833 34.625 22.9999 34.625C26.2291 34.625 29.3124 34 32.1249 32.875L33.0207 33.75L39.1041 39.8333L41.7499 37.1875L4.81242 0.25M22.9999 8.58333C25.7626 8.58333 28.4121 9.6808 30.3656 11.6343C32.3191 13.5878 33.4166 16.2373 33.4166 19C33.4166 20.3333 33.1457 21.625 32.6666 22.7917L38.7707 28.8958C41.8957 26.2917 44.3958 22.875 45.9166 19C42.3124 9.85417 33.4166 3.375 22.9999 3.375C20.0833 3.375 17.2916 3.89583 14.6666 4.83333L19.1874 9.3125C20.3749 8.85417 21.6458 8.58333 22.9999 8.58333Z" fill="#15284B"/>
</svg>
