<svg width="80" height="80" viewBox="0 0 80 80" fill="none" xmlns="http://www.w3.org/2000/svg">
<path d="M40 57.875C39.3333 57.875 38.7083 57.7717 38.125 57.565C37.5417 57.3583 37 57.0033 36.5 56.5L18.5 38.5C17.5833 37.5833 17.125 36.4167 17.125 35C17.125 33.5833 17.5833 32.4167 18.5 31.5C19.4167 30.5833 20.605 30.105 22.065 30.065C23.525 30.025 24.7117 30.4617 25.625 31.375L35 40.75V5.00002C35 3.58335 35.48 2.39502 36.44 1.43502C37.4 0.475018 38.5867 -0.00331603 40 1.7301e-05C41.4167 1.7301e-05 42.605 0.480018 43.565 1.44002C44.525 2.40002 45.0033 3.58668 45 5.00002V40.75L54.375 31.375C55.2917 30.4583 56.48 30.02 57.94 30.06C59.4 30.1 60.5867 30.58 61.5 31.5C62.4166 32.4167 62.875 33.5833 62.875 35C62.875 36.4167 62.4166 37.5833 61.5 38.5L43.5 56.5C43 57 42.4583 57.355 41.875 57.565C41.2917 57.775 40.6667 57.8783 40 57.875ZM10 80C7.25001 80 4.89501 79.02 2.93501 77.06C0.975007 75.1 -0.00332484 72.7467 8.48897e-06 70V60C8.48897e-06 58.5833 0.480009 57.395 1.44001 56.435C2.40001 55.475 3.58667 54.9967 5.00001 55C6.41667 55 7.605 55.48 8.565 56.44C9.525 57.4 10.0033 58.5867 10 60V70H70V60C70 58.5833 70.48 57.395 71.44 56.435C72.4 55.475 73.5866 54.9967 75 55C76.4166 55 77.605 55.48 78.565 56.44C79.525 57.4 80.0033 58.5867 80 60V70C80 72.75 79.02 75.105 77.06 77.065C75.1 79.025 72.7467 80.0033 70 80H10Z" fill="white"/>
</svg>
